<svg xmlns="http://www.w3.org/2000/svg">
    <symbol id="logo" viewBox="0 0 255 80">
        <g id="Symbols" stroke="none" stroke-width="1" fill="none" fill-rule="evenodd">
            <g id="logo/afelio/white" fill="currentColor">
                <g id="Afelio---RVB" transform="translate(0.000000, 0.000000)">
                    <path
                        d="M170.964956,8.22677073 C170.964956,10.1260878 170.275785,11.7717463 168.89198,13.156722 C167.506615,14.5416976 165.862517,15.2016 163.960859,15.1415024 C162.119298,15.0919415 160.559883,14.3976976 159.285346,13.0490146 C158.008859,11.7065756 157.373932,10.1065756 157.373932,8.24901463 C157.373932,6.31613659 158.05842,4.65720976 159.437932,3.27262439 C160.813932,1.8896 162.455298,1.22852683 164.355005,1.29096585 C166.194224,1.35262439 167.757932,2.05857561 169.040663,3.4131122 C170.323005,4.76491707 170.964956,6.37116098 170.964956,8.22677073"
                        id="Fill-1" />
                    <path
                        d="M203.447805,72.0541268 C191.238634,72.0541268 181.342829,62.156761 181.342829,49.9479805 C181.342829,37.737639 191.238634,27.8406634 203.447805,27.8406634 C215.657366,27.8406634 225.554732,37.737639 225.554732,49.9479805 C225.554732,62.156761 215.657366,72.0541268 203.447805,72.0541268 L203.447805,72.0541268 Z M203.447805,20.2648585 C187.05561,20.2648585 173.765073,33.5534439 173.765073,49.9479805 C173.765073,66.3409561 187.05561,79.6311024 203.447805,79.6311024 C219.841951,79.6311024 233.131707,66.3409561 233.131707,49.9479805 C233.131707,33.5534439 219.841951,20.2648585 203.447805,20.2648585 L203.447805,20.2648585 Z M145.861463,77.4699317 L153.386927,77.4699317 L153.386927,1.10739512 L145.861463,1.10739512 L145.861463,77.4699317 Z M90.1681951,44.8853463 C91.2218537,39.5323707 93.779122,35.2112 97.84,31.9101268 C101.90322,28.6071024 106.64039,26.9891512 112.054244,27.0558829 C117.468098,27.1214439 122.120976,28.7881756 126.018732,32.0599805 C129.916488,35.3255415 132.393756,39.6037854 133.447415,44.8853463 L90.1681951,44.8853463 Z M113.244488,19.432078 C104.860488,18.9692488 97.5781463,21.7950049 91.4033171,27.9003707 C85.2327805,34.0072976 82.2423415,41.2872976 82.4444878,49.7368585 C82.5740488,57.7267122 85.6120976,64.6129561 91.5539512,70.3838829 C97.4977561,76.1641756 104.328195,78.9895415 112.054244,78.8537366 C118.195902,78.7877854 123.772878,76.9739317 128.794927,73.4067122 C133.810341,69.8414439 137.37639,65.0254439 139.492293,58.9454439 L131.470049,58.9454439 C127.639805,67.0675902 121.265171,71.1963707 112.35122,71.3271024 C106.60761,71.3942244 101.622634,69.5780293 97.3947317,65.8792976 C93.171122,62.1832976 90.7601951,57.497639 90.1681951,51.8149073 L140.874537,51.8149073 L140.874537,47.7571512 C140.874537,40.7589073 138.203707,34.4193951 132.855415,28.7401756 C127.307707,22.9942244 120.771902,19.8937366 113.244488,19.432078 L113.244488,19.432078 Z M160.152195,77.4699317 L167.677659,77.4699317 L167.677659,19.4867122 L160.152195,19.4867122 L160.152195,77.4699317 Z M44.481561,64.926322 C40.0803902,69.5257366 34.7707317,71.6923707 28.5494634,71.4273951 C22.7910244,71.1639805 17.8794146,68.7975415 13.8076098,64.3304195 C9.73814634,59.865639 7.76858537,54.6515902 7.89853659,48.6956878 C7.96253659,42.6746146 10.1155122,37.5464195 14.3539512,33.3118829 C18.5880976,29.0777366 23.7174634,26.9579317 29.7416585,26.9579317 C35.4958049,26.9579317 40.4257561,29.0777366 44.5291707,33.3118829 C48.6360976,37.5464195 50.753561,42.6426146 50.8854634,48.5957854 C51.0142439,54.8853463 48.8858537,60.3292488 44.481561,64.926322 L44.481561,64.926322 Z M30.2860488,19.630322 C22.097561,19.2986146 15.0653659,22.088078 9.18673171,27.996761 C3.30965854,33.9066146 0.37502439,40.9914927 0.37502439,49.2420293 C0.37502439,57.1667122 3.09931707,63.998322 8.56078049,69.7438829 C14.0210732,75.4878829 20.6298537,78.492761 28.3925854,78.7550049 C37.2702439,79.0199805 44.7683902,75.6529561 50.8854634,68.6551024 L50.8854634,77.4699317 L58.4120976,77.4699317 L58.4120976,49.1436878 C58.6759024,41.2872976 56.0374634,34.4681756 50.4893659,28.6894439 C44.9436098,22.9142244 38.2076098,19.8937366 30.2860488,19.630322 L30.2860488,19.630322 Z M86.3734634,21.0149073 L72.1096585,21.0149073 L72.1096585,18.6195902 C72.1096585,15.9596878 73.376,13.3013463 75.8981463,10.6387122 C77.5625366,8.97315122 80.3879024,8.04202927 84.3789268,7.8414439 L86.3734634,7.8414439 L86.3734634,1.10739512 L84.3933659,1.10739512 C78.5857561,1.10739512 73.825561,2.74251707 70.129561,6.01315122 C66.4316098,9.27676098 64.5838049,13.9194927 64.5838049,19.9261268 L64.5838049,77.4699317 L72.1096585,77.4699317 L72.1096585,27.9464195 L86.3734634,27.9464195 L86.3734634,21.0149073 Z"
                        id="Fill-3" />
                    <path
                        d="M240.775141,32.2370341 C240.758751,23.1962537 231.816312,14.2530341 222.776702,14.2374244 L222.776702,9.55176585 C234.406361,9.55332683 245.459239,20.6065951 245.46119,32.2370341 L240.775141,32.2370341 Z"
                        id="Fill-5" />
                    <path
                        d="M232.073951,32.2370341 C232.065756,28.1223024 226.891122,22.9464976 222.77678,22.9386927 L222.77678,18.2530341 C229.483512,18.2538146 236.757659,25.5334244 236.757659,32.2370341 L236.75961,32.2370341 L232.073951,32.2370341 Z"
                        id="Fill-7" />
                    <path
                        d="M250.115863,32.2370341 C250.113912,24.679961 247.059473,17.860839 242.107668,12.9059122 C237.153522,7.9548878 230.333229,4.8988878 222.776546,4.89771707 L222.776546,0.212058537 C240.463961,0.214009756 254.799961,14.5492293 254.801912,32.2370341 L250.115863,32.2370341 Z"
                        id="Fill-9" />
                </g>
            </g>
        </g>
    </symbol>

    <symbol id="facebook" viewBox="0 0 7 17">
        <g id="afelio.be" stroke="none" stroke-width="1" fill="none" fill-rule="evenodd">
            <g id="pages/1-homepage-rassemblé-copy-2" transform="translate(-1321.000000, -48.000000)"
                fill="currentColor">
                <g id="elements/header/white-2" transform="translate(24.000000, 32.000000)">
                    <g id="elements/header/white">
                        <g id="Group" transform="translate(1288.000000, 12.000000)">
                            <path
                                d="M15.7260624,12.506375 L13.6155191,12.506375 L13.6155191,21 L10.4883002,21 L10.4883002,12.506375 L9,12.506375 L9,9.505875 L10.4883002,9.505875 L10.4883002,7.563625 C10.4883002,6.1749375 11.0728886,4 13.6437601,4 L15.9604626,4.010625 L15.9604626,6.924 L14.2791824,6.924 C14.0052448,6.924 13.6155191,7.0801875 13.6155191,7.742125 L13.6155191,9.505875 L16,9.505875 L15.7260624,12.506375 Z"
                                id="Facebook" />
                        </g>
                    </g>
                </g>
            </g>
        </g>
    </symbol>

    <symbol id="intagram" viewBox="0 0 16 16">
        <g id="Page-1" stroke="none" stroke-width="1" fill="none" fill-rule="evenodd">
            <g id="instagram-seeklogo.com" fill="currentColor" fill-rule="nonzero">
                <path
                    d="M7.99998413,1.44147062 C10.1360866,1.44147062 10.3890871,1.44960017 11.2326548,1.48808851 C12.0126469,1.52368704 12.4362408,1.65401386 12.718171,1.76354048 C13.0915586,1.90866563 13.3580872,2.08205366 13.6380168,2.36198324 C13.9179463,2.64191282 14.0913344,2.90844136 14.2364278,3.28182899 C14.3459861,3.5637592 14.4763129,3.98735315 14.5119115,4.7673135 C14.5503998,5.61091297 14.5585294,5.86391342 14.5585294,8.00001588 C14.5585294,10.1361183 14.5503998,10.3891188 14.5119115,11.2326865 C14.4763129,12.0126786 14.3459861,12.4362726 14.2364278,12.7182027 C14.0913344,13.0915904 13.9179463,13.3581189 13.6380168,13.6380485 C13.3580872,13.9179781 13.0915586,14.0913661 12.718171,14.2364595 C12.4362408,14.3460179 12.0126469,14.4763448 11.2326548,14.5119432 C10.3892141,14.5504316 10.1362136,14.5585611 7.99998413,14.5585611 C5.86375464,14.5585611 5.61075419,14.5504316 4.7673135,14.5119432 C3.9873214,14.4763448 3.56372744,14.3460179 3.28182899,14.2364595 C2.9084096,14.0913661 2.64188107,13.9179781 2.36195149,13.6380485 C2.08202191,13.3581189 1.90863387,13.0915904 1.76354048,12.7182027 C1.65398211,12.4362726 1.52365528,12.0126786 1.48805675,11.2327182 C1.44956841,10.3891188 1.44143887,10.1361183 1.44143887,8.00001588 C1.44143887,5.86391342 1.44956841,5.61091297 1.48805675,4.76734526 C1.52365528,3.98735315 1.65398211,3.5637592 1.76354048,3.28182899 C1.90863387,2.90844136 2.08202191,2.64191282 2.36195149,2.36198324 C2.64188107,2.08205366 2.9084096,1.90866563 3.28182899,1.76354048 C3.56372744,1.65401386 3.9873214,1.52368704 4.76728174,1.48808851 C5.61088121,1.44960017 5.86388166,1.44147062 7.99998413,1.44147062 M7.99998413,0 C5.82729869,0 5.55489529,0.0092092545 4.70161023,0.0481421718 C3.85007175,0.0870115769 3.26855496,0.222228838 2.75966426,0.420005517 C2.23359354,0.624450967 1.78745279,0.897997581 1.34270931,1.34274106 C0.897965825,1.78748454 0.624419212,2.23362529 0.419973762,2.75969601 C0.222197082,3.26858672 0.0869798213,3.85010351 0.0481104158,4.70164199 C0.00917749844,5.55489529 0,5.82733045 0,8.00001588 C0,10.1727013 0.00917749844,10.4451364 0.0481104158,11.2983898 C0.0869798213,12.1499283 0.222197082,12.7314451 0.419973762,13.2403357 C0.624419212,13.7663747 0.897965825,14.2125472 1.34270931,14.6572907 C1.78745279,15.1020342 2.23359354,15.3755808 2.75966426,15.5800262 C3.26855496,15.7778029 3.85007175,15.9130202 4.70161023,15.9518896 C5.55489529,15.9908225 5.82729869,16 7.99998413,16 C10.1726696,16 10.4451047,15.9908225 11.298358,15.9518896 C12.1498965,15.9130202 12.7314133,15.7778029 13.240304,15.5800262 C13.7663747,15.3755808 14.2125154,15.1020342 14.6572589,14.6572907 C15.1020024,14.2125472 15.3755491,13.7664064 15.5799945,13.2403357 C15.7777712,12.7314451 15.9129884,12.1499283 15.9518578,11.2983898 C15.9907908,10.4451364 16,10.1727013 16,8.00001588 C16,5.82733045 15.9907908,5.55489529 15.9518578,4.70164199 C15.9129884,3.85010351 15.7777712,3.26858672 15.5799945,2.75969601 C15.3755491,2.23362529 15.1020024,1.78748454 14.6572589,1.34274106 C14.2125154,0.897997581 13.7663747,0.624450967 13.240304,0.420005517 C12.7314133,0.222228838 12.1498965,0.0870115769 11.298358,0.0481421718 C10.4451047,0.0092092545 10.1726696,0 7.99998413,0 Z M7.99998413,3.89189447 C5.73114137,3.89189447 3.89186271,5.73117312 3.89186271,8.00001588 C3.89186271,10.2688586 5.73114137,12.1081373 7.99998413,12.1081373 C10.2688269,12.1081373 12.1081056,10.2688586 12.1081056,8.00001588 C12.1081056,5.73117312 10.2688269,3.89189447 7.99998413,3.89189447 Z M7.99998413,10.6666984 C6.52723381,10.6666984 5.33330158,9.47276619 5.33330158,8.00001587 C5.33330158,6.52726556 6.52723381,5.33333333 7.99998413,5.33333333 C9.47273444,5.33333333 10.6666667,6.52726556 10.6666667,8.00001587 C10.6666667,9.47276619 9.47273444,10.6666984 7.99998413,10.6666984 Z M13.2303961,3.72958929 C13.2303961,4.25978831 12.8006097,4.68960644 12.2704107,4.68960644 C11.7402117,4.68960644 11.3103936,4.25978831 11.3103936,3.72958929 C11.3103936,3.19939028 11.7402117,2.7696039 12.2704107,2.7696039 C12.8006097,2.7696039 13.2303961,3.19939028 13.2303961,3.72958929 Z"
                    id="Shape" />
            </g>
        </g>
    </symbol>

    <symbol id="linkedin" viewBox="0 0 16 16">
        <g id="afelio.be" stroke="none" stroke-width="1" fill="none" fill-rule="evenodd">
            <g id="pages/1-homepage-rassemblé-copy-2" transform="translate(-1356.000000, -48.000000)"
                fill="currentColor">
                <g id="elements/header/white-2" transform="translate(24.000000, 32.000000)">
                    <g id="elements/header/white">
                        <g id="Group-Copy-2" transform="translate(1328.000000, 12.000000)">
                            <path
                                d="M4.40357479,9.13049046 L7.52210724,9.13049046 L7.52210724,19.9989755 L4.40357479,19.9989755 L4.40357479,9.13049046 Z M5.88334901,7.77103342 L5.8607714,7.77103342 C4.73189087,7.77103342 4,6.94019721 4,5.88807786 C4,4.81444487 4.75352775,4 5.90498589,4 C7.05550329,4 7.76293509,4.81239595 7.7855127,5.88500448 C7.7855127,6.93712383 7.05550329,7.77103342 5.88334901,7.77103342 L5.88334901,7.77103342 Z M20,20 L16.4637817,20 L16.4637817,14.3746959 C16.4637817,12.9025483 15.9106303,11.8985786 14.6942615,11.8985786 C13.7638758,11.8985786 13.2464722,12.5757459 13.0056444,13.2303752 C12.915334,13.4639519 12.929445,13.7907543 12.929445,14.1185811 L12.929445,20 L9.4261524,20 C9.4261524,20 9.47130762,10.0361122 9.4261524,9.13049046 L12.929445,9.13049046 L12.929445,10.8362146 C13.1364064,10.0904085 14.2558796,9.02599565 16.042333,9.02599565 C18.2587018,9.02599565 20,10.5903445 20,13.9556922 L20,20 L20,20 Z"
                                id="Shape" />
                        </g>
                    </g>
                </g>
            </g>
        </g>
    </symbol>

    <symbol id="twitter" viewBox="0 0 16 13">
        <g id="afelio.be" stroke="none" stroke-width="1" fill="none" fill-rule="evenodd">
            <g id="pages/1-homepage-rassemblé-copy-2" transform="translate(-1396.000000, -49.000000)" fill="#FFFFFF"
                fill-rule="nonzero">
                <g id="elements/header/white-2" transform="translate(24.000000, 32.000000)">
                    <g id="elements/header/white">
                        <g id="Group-Copy" transform="translate(1368.000000, 12.000000)">
                            <path
                                d="M19.9686667,6.54800296 C19.3696463,6.81171698 18.7350648,6.9858057 18.0853333,7.06466963 C18.7693429,6.65373584 19.2815442,6.00916258 19.5273333,5.25000296 C18.8807572,5.62626494 18.1763417,5.89287056 17.4426667,6.03900296 C16.8237543,5.37519062 15.956578,4.99878227 15.049,5 C13.2376667,5 11.769,6.46800296 11.769,8.27666963 C11.769,8.53666963 11.799,8.78666963 11.8536667,9.02600296 C9.127,8.89733629 6.71033333,7.58833629 5.09333333,5.60966963 C4.80866667,6.09100296 4.64933333,6.65000296 4.64933333,7.25933629 C4.64854589,8.35588808 5.19594156,9.38025353 6.108,9.98900296 C5.58724269,9.97240088 5.07799085,9.83160234 4.62266667,9.57833629 L4.62266667,9.61900296 C4.62230286,11.1806443 5.72267617,12.5261337 7.25333333,12.8356696 C6.77230754,12.9653049 6.26822222,12.9846753 5.77866667,12.8923363 C6.19933333,14.194003 7.40866667,15.143003 8.84766667,15.1696696 C7.68732276,16.0799733 6.25480468,16.5740706 4.78,16.5726696 C4.52,16.5726696 4.26066667,16.5573363 4,16.528003 C5.45933333,17.457003 7.17866667,18 9.03766667,18 C15.0736667,18 18.37,13.0043363 18.37,8.67933629 C18.37,8.54000296 18.37,8.39933629 18.36,8.25933629 C19.0039505,7.79612649 19.5594412,7.22099041 20,6.56133629 L19.9686667,6.54800296 L19.9686667,6.54800296 Z"
                                id="twitter" />
                        </g>
                    </g>
                </g>
            </g>
        </g>
    </symbol>

    <symbol id="youtube" viewBox="0 0 16 12">
        <g id="Page-1" stroke="none" stroke-width="1" fill="none" fill-rule="evenodd">
            <g id="youtube-white" fill="currentColor" fill-rule="nonzero">
                <path
                    d="M14.2606048,0.351761485 C14.9476013,0.543041145 15.4842654,1.09395141 15.6705987,1.79918472 L15.6702654,1.7995269 C15.981357,2.96520035 15.9993849,5.2770602 16.0000489,5.6970867 L16.0000489,5.74637075 C16.0000489,5.75196055 16.0000489,5.7562041 16.0000489,5.75905025 L15.9997346,5.82928675 C15.9971467,6.24732325 15.969327,8.54848685 15.6702654,9.7141603 C15.4839321,10.4193937 14.947268,10.9703039 14.2602715,11.1615836 C13.1424192,11.4637411 9.03005395,11.4961151 8.1616653,11.4995838 L7.8386757,11.4995838 C7.44020335,11.4979089 6.3568378,11.4898928 5.1930605,11.4511485 L4.88803977,11.4403282 C4.83703145,11.4384033 4.7859705,11.4364163 4.73490658,11.4343652 L4.42888499,11.4212735 C3.30959024,11.3703328 2.23695458,11.2864306 1.73999245,11.1482385 C1.05273947,10.9571691 0.51578526,10.4062215 0.329331905,9.7008153 C0.229766445,9.31618855 0.160302171,8.80298805 0.111838724,8.2741112 L0.090929025,8.0293122 C0.019484791,7.1306491 0.00417531237,6.2368332 0.000894709795,5.8950344 L2.26088097e-06,5.76663295 C2.26088097e-06,5.7610431 2.26088097e-06,5.7567993 2.26088097e-06,5.753953 C2.26088097e-06,5.7496578 2.26088097e-06,5.74389125 2.26088097e-06,5.7327653 L0.000894709795,5.6049538 C0.00387707577,5.29560345 0.0168006616,4.53173975 0.072802867,3.7205001 L0.090929025,3.47611405 L0.090929025,3.47611405 L0.111838724,3.23132825 C0.160302171,2.7022903 0.229766445,2.18763908 0.329331905,1.79918472 C0.51399777,1.09566175 1.06766203,0.52730005 1.73965912,0.33807427 C2.20915708,0.21129642 3.20688713,0.13206026 4.27065205,0.082537665 L4.57598249,0.06918148 C5.954462,0.01257845 7.36933545,0.00228699 7.8382653,0.000415815 L8.161676,0.000415815 C9.03012155,0.00403808 13.1427526,0.03768873 14.2606048,0.351761485 Z M6.5,3.5 L6.5,8 L10.5,5.75 L6.5,3.5 Z"
                    id="Combined-Shape" />
            </g>
        </g>
    </symbol>
</svg>